<?xml version="1.0" encoding="iso-8859-1"?>
<!-- Generator: Adobe Illustrator 19.0.0, SVG Export Plug-In . SVG Version: 6.00 Build 0)  -->
<svg version="1.1" id="Layer_1" xmlns="http://www.w3.org/2000/svg" xmlns:xlink="http://www.w3.org/1999/xlink" x="0px" y="0px"
	 viewBox="0 0 469.333 469.333" style="enable-background:new 0 0 469.333 469.333;" xml:space="preserve" fill="#FFFFFF" width="50" height="50">
<g>
	<g>
		<g>
			<path d="M309.333,362.667H160c-5.896,0-10.667,4.771-10.667,10.667S154.104,384,160,384h149.333
				c5.896,0,10.667-4.771,10.667-10.667S315.229,362.667,309.333,362.667z"/>
			<path d="M245.333,405.333H138.667c-5.896,0-10.667,4.771-10.667,10.667c0,5.896,4.771,10.667,10.667,10.667h106.667
				c5.896,0,10.667-4.771,10.667-10.667C256,410.104,251.229,405.333,245.333,405.333z"/>
			<path d="M405.333,234.667C393.563,234.667,384,244.24,384,256c0,11.76,9.563,21.333,21.333,21.333s21.333-9.573,21.333-21.333
				C426.667,244.24,417.104,234.667,405.333,234.667z"/>
			<path d="M426.667,192h-21.333v-74.667c0-5.896-4.771-10.667-10.667-10.667H384V96c0-2.833-1.125-5.542-3.125-7.542L295.542,3.125
				c-2-2-4.708-3.125-7.542-3.125H128c-23.521,0-42.667,19.135-42.667,42.667v64H74.667c-5.896,0-10.667,4.771-10.667,10.667V192
				H42.667C19.146,192,0,211.135,0,234.667v106.667C0,364.865,19.146,384,42.667,384h17.952l-14.764,33.219
				c-2.104,4.76-3.188,9.823-3.188,15.052c0,20.438,16.625,37.063,37.063,37.063h309.875c20.438,0,37.063-16.625,37.063-37.063
				c0-5.229-1.083-10.292-3.188-15.052L408.715,384h17.952c23.521,0,42.667-19.135,42.667-42.667V234.667
				C469.333,211.135,450.188,192,426.667,192z M298.667,36.417l48.917,48.917H320c-11.771,0-21.333-9.573-21.333-21.333V36.417z
				 M106.667,42.667c0-11.76,9.563-21.333,21.333-21.333h149.333V64c0,23.531,19.146,42.667,42.667,42.667h42.667V192h-256V42.667z
				 M389.604,448H79.729C71.062,448,64,440.948,64,432.271c0-2.219,0.458-4.365,1.354-6.385l37.581-84.552h263.464l37.581,84.552
				c0.896,2.021,1.354,4.167,1.354,6.385C405.333,440.948,398.271,448,389.604,448z M448,341.333
				c0,11.76-9.563,21.333-21.333,21.333h-27.435l-9.482-21.333h4.917c5.896,0,10.667-4.771,10.667-10.667
				c0-5.896-4.771-10.667-10.667-10.667h-21.53c-0.009,0-0.017,0-0.017,0H96.206c-0.009,0-0.017,0-0.026,0H74.667
				C68.771,320,64,324.771,64,330.667c0,5.896,4.771,10.667,10.667,10.667h4.917l-9.482,21.333H42.667
				c-11.771,0-21.333-9.573-21.333-21.333V234.667c0-11.76,9.563-21.333,21.333-21.333h32H96h277.333h21.333h32
				c11.771,0,21.333,9.573,21.333,21.333V341.333z"/>
		</g>
	</g>
</g>
<g>
</g>
<g>
</g>
<g>
</g>
<g>
</g>
<g>
</g>
<g>
</g>
<g>
</g>
<g>
</g>
<g>
</g>
<g>
</g>
<g>
</g>
<g>
</g>
<g>
</g>
<g>
</g>
<g>
</g>
</svg>
